<?xml version="1.0" standalone="yes"?>
<svg xmlns="http://www.w3.org/2000/svg" width="500" height="501">
<path style="fill:#ff585f; stroke:none;" d="M0 0L0 501L500 501L500 0L0 0z"/>
<path style="fill:#ff8085; stroke:none;" d="M307 127C308.248 127.685 308.548 127.749 310 128C308.752 127.315 308.452 127.251 307 127z"/>
<path style="fill:#ffa1a5; stroke:none;" d="M310 127C311.248 127.685 311.548 127.749 313 128C311.752 127.315 311.452 127.251 310 127z"/>
<path style="fill:#ffd2d4; stroke:none;" d="M313 127C317.974 129.087 324.638 128 330 128C325.026 125.913 318.362 127 313 127z"/>
<path style="fill:#ffacaf; stroke:none;" d="M330 127C331.248 127.685 331.548 127.749 333 128C331.752 127.315 331.452 127.251 330 127z"/>
<path style="fill:#ff8388; stroke:none;" d="M333 127C334.248 127.685 334.548 127.749 336 128C334.752 127.315 334.452 127.251 333 127z"/>
<path style="fill:#ff9ea2; stroke:none;" d="M299 128C300.248 128.685 300.548 128.749 302 129C300.752 128.315 300.452 128.251 299 128z"/>
<path style="fill:#ffd5d7; stroke:none;" d="M302.667 128.333C302.222 128.778 303.278 128.722 303.333 128.667C303.778 128.222 302.722 128.278 302.667 128.333z"/>
<path style="fill:#ffffff; stroke:none;" d="M310 224C323.774 252.988 365.756 258.823 387.826 235.91C416.745 205.887 396.875 149.116 361 134.454C346.9 128.691 332.996 128 318 128C304.299 128 291.24 129.68 278 133.282C269.369 135.63 260.937 139.164 253 143.258C192.49 174.474 173.923 243.948 133.996 294C121.813 309.273 106.033 321.063 87 326.077C78.8372 328.228 68.4128 326.054 61.0039 330.14C53.7301 334.151 50.9199 343.764 55.0895 350.996C60.2071 359.873 71.1675 358.348 80 357.961C104.246 356.897 127.967 344.828 145 327.996C194.971 278.616 209.693 193.052 280 165.204C288.033 162.022 296.456 160.06 305 158.87C314.539 157.541 325.499 156.923 335 158.808C352.032 162.187 364.223 172.146 369.279 189C371.524 196.486 372.123 204.389 367.211 210.96C358.873 222.112 343.19 220.319 337 207.999C333.952 201.933 335.496 195.304 329.815 190.419C318.639 180.81 299.615 190.746 291.004 199.04C258.079 230.752 269.082 287.914 298.17 317.91C317.539 337.885 345.229 348.57 372 353.996C388.231 357.286 404.497 358.007 421 358C430.492 357.996 439.011 353.906 438.917 343C438.86 336.475 434.167 330.795 428 328.943C416.622 325.526 402.837 328.254 391 326.41C370.012 323.14 348.482 317.771 331 305.079C305.605 286.644 291.436 252.173 310 224z"/>
<path style="fill:#ffc3c5; stroke:none;" d="M338.667 128.333C338.222 128.778 339.278 128.722 339.333 128.667C339.778 128.222 338.722 128.278 338.667 128.333z"/>
<path style="fill:#ff8a8f; stroke:none;" d="M340.667 128.333C340.222 128.778 341.278 128.722 341.333 128.667C341.778 128.222 340.722 128.278 340.667 128.333z"/>
<path style="fill:#ff9195; stroke:none;" d="M292 129C293.248 129.685 293.548 129.749 295 130C293.752 129.315 293.452 129.251 292 129z"/>
<path style="fill:#ffafb3; stroke:none;" d="M344.667 129.333C344.222 129.778 345.278 129.722 345.333 129.667C345.778 129.222 344.722 129.278 344.667 129.333z"/>
<path style="fill:#ffb8bb; stroke:none;" d="M288.667 130.333C288.222 130.778 289.278 130.722 289.333 130.667C289.778 130.222 288.722 130.278 288.667 130.333z"/>
<path style="fill:#ff8a8f; stroke:none;" d="M349.667 130.333C349.222 130.778 350.278 130.722 350.333 130.667C350.778 130.222 349.722 130.278 349.667 130.333z"/>
<path style="fill:#ffacaf; stroke:none;" d="M283.667 131.333C283.222 131.778 284.278 131.722 284.333 131.667C284.778 131.222 283.722 131.278 283.667 131.333z"/>
<path style="fill:#ffc9cc; stroke:none;" d="M352 131L353 132L352 131z"/>
<path style="fill:#ffcfd1; stroke:none;" d="M280.667 132.333C280.222 132.778 281.278 132.722 281.333 132.667C281.778 132.222 280.722 132.278 280.667 132.333z"/>
<path style="fill:#ffc9cc; stroke:none;" d="M355 132L356 133L355 132z"/>
<path style="fill:#ff8e92; stroke:none;" d="M276 133L277 134L276 133z"/>
<path style="fill:#ffafb3; stroke:none;" d="M358 133L359 134L358 133z"/>
<path style="fill:#ffc3c5; stroke:none;" d="M273.667 134.333C273.222 134.778 274.278 134.722 274.333 134.667C274.778 134.222 273.722 134.278 273.667 134.333z"/>
<path style="fill:#ff959a; stroke:none;" d="M270 135L271 136L270 135z"/>
<path style="fill:#ffb8bb; stroke:none;" d="M268 136L269 137L268 136z"/>
<path style="fill:#ffa9ad; stroke:none;" d="M265 137L266 138L265 137z"/>
<path style="fill:#ffbcbf; stroke:none;" d="M263 138L264 139L263 138z"/>
<path style="fill:#ffb8bb; stroke:none;" d="M368 138L369 139L368 138z"/>
<path style="fill:#ff9195; stroke:none;" d="M260 139L261 140L260 139z"/>
<path style="fill:#ffa1a5; stroke:none;" d="M258 140L259 141L258 140z"/>
<path style="fill:#ffb8bb; stroke:none;" d="M371 140L372 141L371 140z"/>
<path style="fill:#ffa3a7; stroke:none;" d="M256 141L257 142L256 141z"/>
<path style="fill:#ffa1a5; stroke:none;" d="M254 142L255 143L254 142M374 142L375 143L374 142z"/>
<path style="fill:#ff9ea2; stroke:none;" d="M252 143L253 144L252 143z"/>
<path style="fill:#ffc0c3; stroke:none;" d="M375 143L376 144L375 143z"/>
<path style="fill:#ffc3c5; stroke:none;" d="M247 146L248 147L247 146z"/>
<path style="fill:#ff959a; stroke:none;" d="M245 147L246 148L245 147z"/>
<path style="fill:#ffafb3; stroke:none;" d="M242 149L243 150L242 149z"/>
<path style="fill:#ffa9ad; stroke:none;" d="M239 151L240 152L239 151z"/>
<path style="fill:#ff989d; stroke:none;" d="M236 153L237 154L236 153z"/>
<path style="fill:#ffbcbf; stroke:none;" d="M385 153L386 154L385 153z"/>
<path style="fill:#ffc0c3; stroke:none;" d="M235 154L236 155L235 154z"/>
<path style="fill:#ff9b9f; stroke:none;" d="M386 154L387 155L386 154z"/>
<path style="fill:#ff959a; stroke:none;" d="M232 156L233 157L232 156z"/>
<path style="fill:#ffb5b8; stroke:none;" d="M231 157L232 158L231 157z"/>
<path style="fill:#ffb8bb; stroke:none;" d="M388 157L389 158L388 157z"/>
<path style="fill:#ffcdcf; stroke:none;" d="M307.667 158.333C307.222 158.778 308.278 158.722 308.333 158.667C308.778 158.222 307.722 158.278 307.667 158.333z"/>
<path style="fill:#ffacaf; stroke:none;" d="M309 158C310.248 158.685 310.548 158.749 312 159C310.752 158.315 310.452 158.251 309 158z"/>
<path style="fill:#ff757b; stroke:none;" d="M312 158C313.769 158.779 315.036 158.912 317 159C315.231 158.221 313.964 158.088 312 158z"/>
<path style="fill:#ff8085; stroke:none;" d="M328 158C329.248 158.685 329.548 158.749 331 159C329.752 158.315 329.452 158.251 328 158z"/>
<path style="fill:#ffafb3; stroke:none;" d="M331 158C332.248 158.685 332.548 158.749 334 159C332.752 158.315 332.452 158.251 331 158z"/>
<path style="fill:#ffc0c3; stroke:none;" d="M300 159C301.248 159.685 301.548 159.749 303 160C301.752 159.315 301.452 159.251 300 159z"/>
<path style="fill:#ffb2b5; stroke:none;" d="M337.667 159.333C337.222 159.778 338.278 159.722 338.333 159.667C338.778 159.222 337.722 159.278 337.667 159.333z"/>
<path style="fill:#ffacaf; stroke:none;" d="M295.667 160.333C295.222 160.778 296.278 160.722 296.333 160.667C296.778 160.222 295.722 160.278 295.667 160.333M390 160L391 161L390 160z"/>
<path style="fill:#ff989d; stroke:none;" d="M226 161L227 162L226 161z"/>
<path style="fill:#ff9195; stroke:none;" d="M291.667 161.333C291.222 161.778 292.278 161.722 292.333 161.667C292.778 161.222 291.722 161.278 291.667 161.333z"/>
<path style="fill:#ffbec0; stroke:none;" d="M345 161L346 162L345 161z"/>
<path style="fill:#ffa9ad; stroke:none;" d="M225 162L226 163L225 162z"/>
<path style="fill:#ff9b9f; stroke:none;" d="M287.667 162.333C287.222 162.778 288.278 162.722 288.333 162.667C288.778 162.222 287.722 162.278 287.667 162.333z"/>
<path style="fill:#ffa1a5; stroke:none;" d="M347 162L348 163L347 162z"/>
<path style="fill:#ffc8ca; stroke:none;" d="M391 162L392 163L391 162z"/>
<path style="fill:#ffbabd; stroke:none;" d="M224 163L225 164L224 163z"/>
<path style="fill:#ffbcbf; stroke:none;" d="M284 163L285 164L284 163z"/>
<path style="fill:#ff959a; stroke:none;" d="M349 163L350 164L349 163z"/>
<path style="fill:#ffc9cc; stroke:none;" d="M223 164L224 165L223 164z"/>
<path style="fill:#ffb8bb; stroke:none;" d="M281 164L282 165L281 164z"/>
<path style="fill:#ff9ea2; stroke:none;" d="M351 164L352 165L351 164z"/>
<path style="fill:#ff9195; stroke:none;" d="M279 165L280 166L279 165z"/>
<path style="fill:#ffc5c8; stroke:none;" d="M353 165L354 166L353 165z"/>
<path style="fill:#ffa9ad; stroke:none;" d="M276 166L277 167L276 166z"/>
<path style="fill:#ff9195; stroke:none;" d="M354 166L355 167L354 166z"/>
<path style="fill:#ff9b9f; stroke:none;" d="M274 167L275 168L274 167z"/>
<path style="fill:#ffc9cc; stroke:none;" d="M358 169L359 170L358 169z"/>
<path style="fill:#ffc8ca; stroke:none;" d="M359 170L360 171L359 170z"/>
<path style="fill:#ffb2b5; stroke:none;" d="M395 170L396 171L395 170z"/>
<path style="fill:#ffc8ca; stroke:none;" d="M360 171L361 172L360 171z"/>
<path style="fill:#ff9195; stroke:none;" d="M264 172L265 173L264 172M396 172L397 173L396 172z"/>
<path style="fill:#ffacaf; stroke:none;" d="M262 173L263 174L262 173z"/>
<path style="fill:#ffc8ca; stroke:none;" d="M213 174L214 175L213 174z"/>
<path style="fill:#ffb8bb; stroke:none;" d="M212 175L213 176L212 175z"/>
<path style="fill:#ff989d; stroke:none;" d="M259 175L260 176L259 175z"/>
<path style="fill:#ffb2b5; stroke:none;" d="M363 175L364 176L363 175z"/>
<path style="fill:#ffcfd1; stroke:none;" d="M397.333 175.667C397.278 175.722 397.222 176.778 397.667 176.333C397.722 176.278 397.778 175.222 397.333 175.667z"/>
<path style="fill:#ffa9ad; stroke:none;" d="M211 176L212 177L211 176z"/>
<path style="fill:#ff989d; stroke:none;" d="M210 177L211 178L210 177z"/>
<path style="fill:#ff9b9f; stroke:none;" d="M256 177L257 178L256 177z"/>
<path style="fill:#ffb2b5; stroke:none;" d="M253 179L254 180L253 179z"/>
<path style="fill:#ff9195; stroke:none;" d="M252 180L253 181L252 180z"/>
<path style="fill:#ffc5c8; stroke:none;" d="M206 182L207 183L206 182M249 182L250 183L249 182z"/>
<path style="fill:#ffb8bb; stroke:none;" d="M399.333 182.667C399.278 182.722 399.222 183.778 399.667 183.333C399.722 183.278 399.778 182.222 399.333 182.667z"/>
<path style="fill:#ffa6aa; stroke:none;" d="M205 183L206 184L205 183z"/>
<path style="fill:#ffb2b5; stroke:none;" d="M248 183L249 184L248 183z"/>
<path style="fill:#ff9ea2; stroke:none;" d="M367 183L368 184L367 183z"/>
<path style="fill:#ff959a; stroke:none;" d="M247 184L248 185L247 184M315 186C317.332 186.985 319.457 186.981 322 187C319.668 186.015 317.543 186.019 315 186z"/>
<path style="fill:#ffc8ca; stroke:none;" d="M202 187L203 188L202 187z"/>
<path style="fill:#ffc9cc; stroke:none;" d="M311.667 187.333C311.222 187.778 312.278 187.722 312.333 187.667C312.778 187.222 311.722 187.278 311.667 187.333z"/>
<path style="fill:#ffbec0; stroke:none;" d="M324 187L325 188L324 187z"/>
<path style="fill:#ffb5b8; stroke:none;" d="M400.333 187.667C400.278 187.722 400.222 188.778 400.667 188.333C400.722 188.278 400.778 187.222 400.333 187.667z"/>
<path style="fill:#ff9ea2; stroke:none;" d="M201 188L202 189L201 188z"/>
<path style="fill:#ff9195; stroke:none;" d="M307 188L308 189L307 188z"/>
<path style="fill:#ffbec0; stroke:none;" d="M305 189L306 190L305 189z"/>
<path style="fill:#ff9195; stroke:none;" d="M369.333 189.667C369.278 189.722 369.222 190.778 369.667 190.333C369.722 190.278 369.778 189.222 369.333 189.667z"/>
<path style="fill:#ffe0e2; stroke:none;" d="M400.333 189.667C400.278 189.722 400.222 190.778 400.667 190.333C400.722 190.278 400.778 189.222 400.333 189.667z"/>
<path style="fill:#ffa3a7; stroke:none;" d="M198 192L199 193L198 192z"/>
<path style="fill:#ffbabd; stroke:none;" d="M299 192L300 193L299 192z"/>
<path style="fill:#ffc5c8; stroke:none;" d="M332 193L333 194L332 193z"/>
<path style="fill:#ffc8ca; stroke:none;" d="M370.333 193.667C370.278 193.722 370.222 194.778 370.667 194.333C370.722 194.278 370.778 193.222 370.333 193.667z"/>
<path style="fill:#ff9ea2; stroke:none;" d="M401 193L401 198C401.83 195.969 401.83 195.031 401 193z"/>
<path style="fill:#ffc9cc; stroke:none;" d="M296 194L297 195L296 194z"/>
<path style="fill:#ffb8bb; stroke:none;" d="M196 195L197 196L196 195z"/>
<path style="fill:#ff757b; stroke:none;" d="M370 195L370 204C371.256 201.006 371.256 197.994 370 195z"/>
<path style="fill:#ffa9ad; stroke:none;" d="M292 197L293 198L292 197z"/>
<path style="fill:#ffb5b8; stroke:none;" d="M291 198L292 199L291 198z"/>
<path style="fill:#ffbec0; stroke:none;" d="M401 198L401 207C402.256 204.006 402.256 200.994 401 198z"/>
<path style="fill:#ff989d; stroke:none;" d="M193 199L194 200L193 199z"/>
<path style="fill:#ff9195; stroke:none;" d="M232 199L233 200L232 199z"/>
<path style="fill:#ffb5b8; stroke:none;" d="M290 199L291 200L290 199z"/>
<path style="fill:#ffa9ad; stroke:none;" d="M231 200L232 201L231 200z"/>
<path style="fill:#ffb5b8; stroke:none;" d="M289 200L290 201L289 200z"/>
<path style="fill:#ff7d83; stroke:none;" d="M335 200L335 203C335.696 201.446 335.696 201.554 335 200z"/>
<path style="fill:#ffc5c8; stroke:none;" d="M230 201L231 202L230 201z"/>
<path style="fill:#ffb2b5; stroke:none;" d="M288 201L289 202L288 201z"/>
<path style="fill:#ffacaf; stroke:none;" d="M191 202L192 203L191 202z"/>
<path style="fill:#ff989d; stroke:none;" d="M287 202L288 203L287 202z"/>
<path style="fill:#ffbec0; stroke:none;" d="M335.333 203.667C335.278 203.722 335.222 204.778 335.667 204.333C335.722 204.278 335.778 203.222 335.333 203.667z"/>
<path style="fill:#ffd5d7; stroke:none;" d="M370.333 204.667C370.278 204.722 370.222 205.778 370.667 205.333C370.722 205.278 370.778 204.222 370.333 204.667z"/>
<path style="fill:#ffa5a8; stroke:none;" d="M189 205L190 206L189 205z"/>
<path style="fill:#ff9ea2; stroke:none;" d="M227 205L228 206L227 205z"/>
<path style="fill:#ffc8ca; stroke:none;" d="M226 206L227 207L226 206z"/>
<path style="fill:#ffb5b8; stroke:none;" d="M284 206L285 207L284 206z"/>
<path style="fill:#ffafb3; stroke:none;" d="M336 207L337 208L336 207z"/>
<path style="fill:#ff9ea2; stroke:none;" d="M369 207L370 208L369 207M187 208L188 209L187 208z"/>
<path style="fill:#ff959a; stroke:none;" d="M224 209L225 210L224 209z"/>
<path style="fill:#ffbcbf; stroke:none;" d="M282 209L283 210L282 209z"/>
<path style="fill:#ffa9ad; stroke:none;" d="M337 209L338 210L337 209z"/>
<path style="fill:#ff989d; stroke:none;" d="M368 209L369 210L368 209z"/>
<path style="fill:#ffbec0; stroke:none;" d="M223 210L224 211L223 210z"/>
<path style="fill:#ff959a; stroke:none;" d="M185 211L186 212L185 211z"/>
<path style="fill:#ff989d; stroke:none;" d="M400.333 211.667C400.278 211.722 400.222 212.778 400.667 212.333C400.722 212.278 400.778 211.222 400.333 211.667z"/>
<path style="fill:#ff959a; stroke:none;" d="M280 212L281 213L280 212z"/>
<path style="fill:#ffbcbf; stroke:none;" d="M339 212L340 213L339 212z"/>
<path style="fill:#ffb8bb; stroke:none;" d="M366 212L367 213L366 212z"/>
<path style="fill:#ffc0c3; stroke:none;" d="M184 213L185 214L184 213z"/>
<path style="fill:#ff989d; stroke:none;" d="M221 213L222 214L221 213z"/>
<path style="fill:#ffb2b5; stroke:none;" d="M340 213L341 214L340 213z"/>
<path style="fill:#ffa6aa; stroke:none;" d="M365 213L366 214L365 213M279 214L280 215L279 214z"/>
<path style="fill:#ffc0c3; stroke:none;" d="M341 214L342 215L341 214z"/>
<path style="fill:#ffb2b5; stroke:none;" d="M364 214L365 215L364 214z"/>
<path style="fill:#ff8a8f; stroke:none;" d="M399.333 215.667C399.278 215.722 399.222 216.778 399.667 216.333C399.722 216.278 399.778 215.222 399.333 215.667z"/>
<path style="fill:#ffa6aa; stroke:none;" d="M182 216L183 217L182 216z"/>
<path style="fill:#ffa5a8; stroke:none;" d="M278 216L279 217L278 216z"/>
<path style="fill:#ffb5b8; stroke:none;" d="M344 216L345 217L344 216z"/>
<path style="fill:#ffacaf; stroke:none;" d="M361 216L362 217L361 216z"/>
<path style="fill:#ffc0c3; stroke:none;" d="M218 217L219 218L218 217M346 217L347 218L346 217z"/>
<path style="fill:#ffb8bb; stroke:none;" d="M359 217L360 218L359 217z"/>
<path style="fill:#ff9195; stroke:none;" d="M277 218L278 219L277 218z"/>
<path style="fill:#ff989d; stroke:none;" d="M349 218C351.332 218.985 353.457 218.981 356 219C353.668 218.015 351.543 218.019 349 218z"/>
<path style="fill:#ffc3c5; stroke:none;" d="M398 218L399 219L398 218z"/>
<path style="fill:#ffb2b5; stroke:none;" d="M216 220L217 221L216 220M179 221L180 222L179 221z"/>
<path style="fill:#ffc0c3; stroke:none;" d="M276 221L277 222L276 221z"/>
<path style="fill:#ff9ea2; stroke:none;" d="M397 221L398 222L397 221z"/>
<path style="fill:#ffb8bb; stroke:none;" d="M214 223L215 224L214 223z"/>
<path style="fill:#ff9195; stroke:none;" d="M275 223L276 224L275 223z"/>
<path style="fill:#ffa3a7; stroke:none;" d="M396 223L397 224L396 223z"/>
<path style="fill:#ff8e92; stroke:none;" d="M177 224L178 225L177 224z"/>
<path style="fill:#ffb5b8; stroke:none;" d="M309 224L310 225L309 224z"/>
<path style="fill:#ff959a; stroke:none;" d="M310 225L311 226L310 225z"/>
<path style="fill:#ff9ea2; stroke:none;" d="M395 225L396 226L395 225z"/>
<path style="fill:#ffacaf; stroke:none;" d="M176 226L177 227L176 226z"/>
<path style="fill:#ffc3c5; stroke:none;" d="M212 226L213 227L212 226z"/>
<path style="fill:#ffc8ca; stroke:none;" d="M274.333 226.667C274.278 226.722 274.222 227.778 274.667 227.333C274.722 227.278 274.778 226.222 274.333 226.667M307 227L308 228L307 227M175 228L176 229L175 228z"/>
<path style="fill:#ff9195; stroke:none;" d="M211 228L212 229L211 228z"/>
<path style="fill:#ffb5b8; stroke:none;" d="M312 228L313 229L312 228z"/>
<path style="fill:#ffbabd; stroke:none;" d="M393 228L394 229L393 228z"/>
<path style="fill:#ffc0c3; stroke:none;" d="M306 229L307 230L306 229z"/>
<path style="fill:#ffd5d7; stroke:none;" d="M273.333 230.667C273.278 230.722 273.222 231.778 273.667 231.333C273.722 231.278 273.778 230.222 273.333 230.667z"/>
<path style="fill:#ffa1a5; stroke:none;" d="M173 231L174 232L173 231z"/>
<path style="fill:#ffa6aa; stroke:none;" d="M209 231L210 232L209 231z"/>
<path style="fill:#ffc9cc; stroke:none;" d="M305 231L306 232L305 231z"/>
<path style="fill:#ff9ea2; stroke:none;" d="M314 231L315 232L314 231z"/>
<path style="fill:#ffa3a7; stroke:none;" d="M391 231L392 232L391 231z"/>
<path style="fill:#ffbec0; stroke:none;" d="M315 232L316 233L315 232z"/>
<path style="fill:#ffc5c8; stroke:none;" d="M390 232L391 233L390 232z"/>
<path style="fill:#ffbcbf; stroke:none;" d="M172 233L173 234L172 233z"/>
<path style="fill:#ff989d; stroke:none;" d="M272 233L272 236C272.696 234.446 272.696 234.554 272 233z"/>
<path style="fill:#ffc5c8; stroke:none;" d="M207 234L208 235L207 234z"/>
<path style="fill:#ffa5a8; stroke:none;" d="M304 234L305 235L304 234z"/>
<path style="fill:#ff8e92; stroke:none;" d="M170 236L171 237L170 236z"/>
<path style="fill:#ffa1a5; stroke:none;" d="M206 236L207 237L206 236z"/>
<path style="fill:#ff7a80; stroke:none;" d="M303.333 237.667C303.278 237.722 303.222 238.778 303.667 238.333C303.722 238.278 303.778 237.222 303.333 237.667z"/>
<path style="fill:#ffa6aa; stroke:none;" d="M169 238L170 239L169 238z"/>
<path style="fill:#ffc0c3; stroke:none;" d="M204 239L205 240L204 239z"/>
<path style="fill:#ff989d; stroke:none;" d="M271 239L271 242C271.696 240.446 271.696 240.554 271 239z"/>
<path style="fill:#ffbcbf; stroke:none;" d="M322 239L323 240L322 239z"/>
<path style="fill:#ffbabd; stroke:none;" d="M383 239L384 240L383 239z"/>
<path style="fill:#ffc0c3; stroke:none;" d="M168 240L169 241L168 240z"/>
<path style="fill:#ffacaf; stroke:none;" d="M302 240L302 243C302.696 241.446 302.696 241.554 302 240z"/>
<path style="fill:#ff959a; stroke:none;" d="M323 240L324 241L323 240z"/>
<path style="fill:#ff9b9f; stroke:none;" d="M382 240L383 241L382 240z"/>
<path style="fill:#ffa5a8; stroke:none;" d="M203 241L204 242L203 241z"/>
<path style="fill:#ffcfd1; stroke:none;" d="M271.333 242.667C271.278 242.722 271.222 243.778 271.667 243.333C271.722 243.278 271.778 242.222 271.333 242.667z"/>
<path style="fill:#ffa9ad; stroke:none;" d="M326 242L327 243L326 242z"/>
<path style="fill:#ffafb3; stroke:none;" d="M379 242L380 243L379 242z"/>
<path style="fill:#ff9195; stroke:none;" d="M166 243L167 244L166 243z"/>
<path style="fill:#ffacaf; stroke:none;" d="M165 245L166 246L165 245z"/>
<path style="fill:#ffc5c8; stroke:none;" d="M301 245L301 256C302.431 252.59 302.431 248.41 301 245z"/>
<path style="fill:#ff8e92; stroke:none;" d="M331 245L332 246L331 245z"/>
<path style="fill:#ff9195; stroke:none;" d="M374 245L375 246L374 245z"/>
<path style="fill:#ffb5b8; stroke:none;" d="M200 246L201 247L200 246z"/>
<path style="fill:#ffc5c8; stroke:none;" d="M164 247L165 248L164 247z"/>
<path style="fill:#ffa6aa; stroke:none;" d="M336 247L337 248L336 247z"/>
<path style="fill:#ffa5a8; stroke:none;" d="M369 247L370 248L369 247z"/>
<path style="fill:#ff9b9f; stroke:none;" d="M199 248L200 249L199 248z"/>
<path style="fill:#ffd2d4; stroke:none;" d="M339.667 248.333C339.222 248.778 340.278 248.722 340.333 248.667C340.778 248.222 339.722 248.278 339.667 248.333z"/>
<path style="fill:#ff7177; stroke:none;" d="M270 249L270 254C270.83 251.97 270.83 251.03 270 249z"/>
<path style="fill:#ffc0c3; stroke:none;" d="M343 249C344.248 249.685 344.548 249.749 346 250C344.752 249.315 344.452 249.251 343 249z"/>
<path style="fill:#ffbcbf; stroke:none;" d="M360.667 249.333C360.222 249.778 361.278 249.722 361.333 249.667C361.778 249.222 360.722 249.278 360.667 249.333z"/>
<path style="fill:#ff7a80; stroke:none;" d="M362.667 249.333C362.222 249.778 363.278 249.722 363.333 249.667C363.778 249.222 362.722 249.278 362.667 249.333z"/>
<path style="fill:#ff989d; stroke:none;" d="M162 250L163 251L162 250z"/>
<path style="fill:#ff9195; stroke:none;" d="M348 250C351.163 251.327 354.586 251 358 251C354.837 249.673 351.414 250 348 250z"/>
<path style="fill:#ffc8ca; stroke:none;" d="M197 251L198 252L197 251z"/>
<path style="fill:#ffb2b5; stroke:none;" d="M161 252L162 253L161 252z"/>
<path style="fill:#ffacaf; stroke:none;" d="M196 253L197 254L196 253z"/>
<path style="fill:#ff9195; stroke:none;" d="M195 255L196 256L195 255z"/>
<path style="fill:#ffa1a5; stroke:none;" d="M158 257L159 258L158 257z"/>
<path style="fill:#ffbec0; stroke:none;" d="M193 258L194 259L193 258z"/>
<path style="fill:#ffc5c8; stroke:none;" d="M271 258L271 263C271.83 260.97 271.83 260.031 271 258z"/>
<path style="fill:#ffbabd; stroke:none;" d="M157 259L158 260L157 259z"/>
<path style="fill:#ffa3a7; stroke:none;" d="M192 260L193 261L192 260z"/>
<path style="fill:#ff959a; stroke:none;" d="M302 260L302 263C302.696 261.446 302.696 261.554 302 260z"/>
<path style="fill:#ff989d; stroke:none;" d="M155 262L156 263L155 262z"/>
<path style="fill:#ff8388; stroke:none;" d="M271.333 263.667C271.278 263.722 271.222 264.778 271.667 264.333C271.722 264.278 271.778 263.222 271.333 263.667z"/>
<path style="fill:#ffbabd; stroke:none;" d="M154 264L155 265L154 264z"/>
<path style="fill:#ffb2b5; stroke:none;" d="M189 265L190 266L189 265z"/>
<path style="fill:#ffbcbf; stroke:none;" d="M303.333 266.667C303.278 266.722 303.222 267.778 303.667 267.333C303.722 267.278 303.778 266.222 303.333 266.667z"/>
<path style="fill:#ff9b9f; stroke:none;" d="M152 267L153 268L152 267z"/>
<path style="fill:#ff959a; stroke:none;" d="M188 267L189 268L188 267z"/>
<path style="fill:#ffbec0; stroke:none;" d="M272.333 267.667C272.278 267.722 272.222 268.778 272.667 268.333C272.722 268.278 272.778 267.222 272.333 267.667z"/>
<path style="fill:#ffc3c5; stroke:none;" d="M151 269L152 270L151 269z"/>
<path style="fill:#ff8085; stroke:none;" d="M272.333 269.667C272.278 269.722 272.222 270.778 272.667 270.333C272.722 270.278 272.778 269.222 272.333 269.667z"/>
<path style="fill:#ffc0c3; stroke:none;" d="M186 270L187 271L186 270z"/>
<path style="fill:#ffa5a8; stroke:none;" d="M304 270L305 271L304 270z"/>
<path style="fill:#ffafb3; stroke:none;" d="M149 272L150 273L149 272z"/>
<path style="fill:#ffa6aa; stroke:none;" d="M185 272L186 273L185 272z"/>
<path style="fill:#ff8b90; stroke:none;" d="M273.333 273.667C273.278 273.722 273.222 274.778 273.667 274.333C273.722 274.278 273.778 273.222 273.333 273.667z"/>
<path style="fill:#ffa9ad; stroke:none;" d="M305 273L306 274L305 273z"/>
<path style="fill:#ff9ea2; stroke:none;" d="M147 275L148 276L147 275z"/>
<path style="fill:#ffb5b8; stroke:none;" d="M182 277L183 278L182 277z"/>
<path style="fill:#ff777d; stroke:none;" d="M274.333 277.667C274.278 277.722 274.222 278.778 274.667 278.333C274.722 278.278 274.778 277.222 274.333 277.667z"/>
<path style="fill:#ffa1a5; stroke:none;" d="M145 278L146 279L145 278z"/>
<path style="fill:#ffc0c3; stroke:none;" d="M307 278L308 279L307 278z"/>
<path style="fill:#ff9195; stroke:none;" d="M181 279L182 280L181 279z"/>
<path style="fill:#ffbabd; stroke:none;" d="M275 280L276 281L275 280z"/>
<path style="fill:#ffc0c3; stroke:none;" d="M308 280L309 281L308 280z"/>
<path style="fill:#ffa5a8; stroke:none;" d="M143 281L144 282L143 281z"/>
<path style="fill:#ffacaf; stroke:none;" d="M179 282L180 283L179 282z"/>
<path style="fill:#ffafb3; stroke:none;" d="M276 283L277 284L276 283z"/>
<path style="fill:#ffb5b8; stroke:none;" d="M141 284L142 285L141 284z"/>
<path style="fill:#ffc9cc; stroke:none;" d="M177 285L178 286L177 285z"/>
<path style="fill:#ffb2b5; stroke:none;" d="M311 285L312 286L311 285z"/>
<path style="fill:#ff959a; stroke:none;" d="M277 286L278 287L277 286z"/>
<path style="fill:#ff9ea2; stroke:none;" d="M176 287L177 288L176 287z"/>
<path style="fill:#ffa6aa; stroke:none;" d="M138 288L139 289L138 288z"/>
<path style="fill:#ffafb3; stroke:none;" d="M278 288L279 289L278 288z"/>
<path style="fill:#ffc0c3; stroke:none;" d="M313 288L314 289L313 288z"/>
<path style="fill:#ff959a; stroke:none;" d="M314 289L315 290L314 289z"/>
<path style="fill:#ffacaf; stroke:none;" d="M174 290L175 291L174 290z"/>
<path style="fill:#ffc0c3; stroke:none;" d="M279 290L280 291L279 290z"/>
<path style="fill:#ffbabd; stroke:none;" d="M135 292L136 293L135 292z"/>
<path style="fill:#ffc8ca; stroke:none;" d="M280 292L281 293L280 292z"/>
<path style="fill:#ff959a; stroke:none;" d="M134 293L135 294L134 293z"/>
<path style="fill:#ffb8bb; stroke:none;" d="M172 293L173 294L172 293z"/>
<path style="fill:#ffc9cc; stroke:none;" d="M281 294L282 295L281 294z"/>
<path style="fill:#ffb8bb; stroke:none;" d="M318 294L319 295L318 294z"/>
<path style="fill:#ffacaf; stroke:none;" d="M319 295L320 296L319 295z"/>
<path style="fill:#ffb8bb; stroke:none;" d="M170 296L171 297L170 296M282 296L283 297L282 296z"/>
<path style="fill:#ffacaf; stroke:none;" d="M320 296L321 297L320 296z"/>
<path style="fill:#ffc9cc; stroke:none;" d="M131 297L132 298L131 297z"/>
<path style="fill:#ffb2b5; stroke:none;" d="M321 297L322 298L321 297z"/>
<path style="fill:#ffc0c3; stroke:none;" d="M130 298L131 299L130 298z"/>
<path style="fill:#ffa5a8; stroke:none;" d="M283 298L284 299L283 298z"/>
<path style="fill:#ffb5b8; stroke:none;" d="M322 298L323 299L322 298z"/>
<path style="fill:#ffb2b5; stroke:none;" d="M129 299L130 300L129 299z"/>
<path style="fill:#ffacaf; stroke:none;" d="M168 299L169 300L168 299z"/>
<path style="fill:#ffc9cc; stroke:none;" d="M323 299L324 300L323 299z"/>
<path style="fill:#ff9ea2; stroke:none;" d="M128 300L129 301L128 300z"/>
<path style="fill:#ff959a; stroke:none;" d="M127 301L128 302L127 301z"/>
<path style="fill:#ffbcbf; stroke:none;" d="M285 301L286 302L285 301z"/>
<path style="fill:#ffa1a5; stroke:none;" d="M166 302L167 303L166 302z"/>
<path style="fill:#ff8e92; stroke:none;" d="M327 302L328 303L327 302z"/>
<path style="fill:#ffafb3; stroke:none;" d="M328 303L329 304L328 303z"/>
<path style="fill:#ffbec0; stroke:none;" d="M287 304L288 305L287 304z"/>
<path style="fill:#ff8e92; stroke:none;" d="M123 305L124 306L123 305z"/>
<path style="fill:#ff959a; stroke:none;" d="M331 305L332 306L331 305z"/>
<path style="fill:#ff989d; stroke:none;" d="M122 306L123 307L122 306z"/>
<path style="fill:#ffa9ad; stroke:none;" d="M163 306L164 307L163 306z"/>
<path style="fill:#ffc8ca; stroke:none;" d="M332 306L333 307L332 306z"/>
<path style="fill:#ffa6aa; stroke:none;" d="M121 307L122 308L121 307M289 307L290 308L289 307z"/>
<path style="fill:#ff989d; stroke:none;" d="M334 307L335 308L334 307z"/>
<path style="fill:#ffb8bb; stroke:none;" d="M120 308L121 309L120 308z"/>
<path style="fill:#ffc9cc; stroke:none;" d="M290 308L291 309L290 308z"/>
<path style="fill:#ffbcbf; stroke:none;" d="M337 309L338 310L337 309z"/>
<path style="fill:#ffa6aa; stroke:none;" d="M160 310L161 311L160 310z"/>
<path style="fill:#ff9ea2; stroke:none;" d="M339 310L340 311L339 310z"/>
<path style="fill:#ff9195; stroke:none;" d="M341 311L342 312L341 311z"/>
<path style="fill:#ffa6aa; stroke:none;" d="M115 312L116 313L115 312z"/>
<path style="fill:#ff9ea2; stroke:none;" d="M293 312L294 313L293 312z"/>
<path style="fill:#ff959a; stroke:none;" d="M343 312L344 313L343 312z"/>
<path style="fill:#ffb2b5; stroke:none;" d="M294 313L295 314L294 313z"/>
<path style="fill:#ff9195; stroke:none;" d="M345 313L346 314L345 313M112 314L113 315L112 314z"/>
<path style="fill:#ffc0c3; stroke:none;" d="M295 314L296 315L295 314z"/>
<path style="fill:#ffacaf; stroke:none;" d="M347 314L348 315L347 314z"/>
<path style="fill:#ffc5c8; stroke:none;" d="M111 315L112 316L111 315z"/>
<path style="fill:#ffa6aa; stroke:none;" d="M156 315L157 316L156 315z"/>
<path style="fill:#ffb8bb; stroke:none;" d="M349 315L350 316L349 315z"/>
<path style="fill:#ff9195; stroke:none;" d="M109 316L110 317L109 316z"/>
<path style="fill:#ffc5c8; stroke:none;" d="M155 316L156 317L155 316z"/>
<path style="fill:#ff9b9f; stroke:none;" d="M352 316L353 317L352 316z"/>
<path style="fill:#ffbabd; stroke:none;" d="M354 317L355 318L354 317z"/>
<path style="fill:#ffb8bb; stroke:none;" d="M106 318L107 319L106 318M357 318L358 319L357 318z"/>
<path style="fill:#ffa9ad; stroke:none;" d="M104 319L105 320L104 319z"/>
<path style="fill:#ffacaf; stroke:none;" d="M360 319L361 320L360 319M102 320L103 321L102 320z"/>
<path style="fill:#ff8b90; stroke:none;" d="M363.667 320.333C363.222 320.778 364.278 320.722 364.333 320.667C364.778 320.222 363.722 320.278 363.667 320.333z"/>
<path style="fill:#ffb5b8; stroke:none;" d="M100 321L101 322L100 321z"/>
<path style="fill:#ffc3c5; stroke:none;" d="M302 321L303 322L302 321z"/>
<path style="fill:#ffa5a8; stroke:none;" d="M366.667 321.333C366.222 321.778 367.278 321.722 367.333 321.667C367.778 321.222 366.722 321.278 366.667 321.333z"/>
<path style="fill:#ffb2b5; stroke:none;" d="M303 322L304 323L303 322z"/>
<path style="fill:#ffa5a8; stroke:none;" d="M370.667 322.333C370.222 322.778 371.278 322.722 371.333 322.667C371.778 322.222 370.722 322.278 370.667 322.333z"/>
<path style="fill:#ffb2b5; stroke:none;" d="M95 323L96 324L95 323z"/>
<path style="fill:#ff959a; stroke:none;" d="M149 323L150 324L149 323z"/>
<path style="fill:#ffa1a5; stroke:none;" d="M304 323L305 324L304 323z"/>
<path style="fill:#ffb8bb; stroke:none;" d="M374 323C375.248 323.685 375.548 323.749 377 324C375.752 323.315 375.452 323.251 374 323z"/>
<path style="fill:#ff9b9f; stroke:none;" d="M148 324L149 325L148 324z"/>
<path style="fill:#ffb8bb; stroke:none;" d="M379 324C380.248 324.685 380.548 324.749 382 325C380.752 324.315 380.452 324.251 379 324z"/>
<path style="fill:#ffc3c5; stroke:none;" d="M88.6667 325.333C88.2222 325.778 89.2778 325.722 89.3333 325.667C89.7778 325.222 88.7222 325.278 88.6667 325.333z"/>
<path style="fill:#ff9ea2; stroke:none;" d="M147 325L148 326L147 325z"/>
<path style="fill:#ffb5b8; stroke:none;" d="M385.667 325.333C385.222 325.778 386.278 325.722 386.333 325.667C386.778 325.222 385.722 325.278 385.667 325.333z"/>
<path style="fill:#ff888d; stroke:none;" d="M387.667 325.333C387.222 325.778 388.278 325.722 388.333 325.667C388.778 325.222 387.722 325.278 387.667 325.333z"/>
<path style="fill:#ffacaf; stroke:none;" d="M83 326C84.2484 326.685 84.5484 326.749 86 327C84.7517 326.315 84.4515 326.251 83 326z"/>
<path style="fill:#ffa1a5; stroke:none;" d="M146 326L147 327L146 326z"/>
<path style="fill:#ffd2d4; stroke:none;" d="M391.667 326.333C391.222 326.778 392.278 326.722 392.333 326.667C392.778 326.222 391.722 326.278 391.667 326.333z"/>
<path style="fill:#ffafb3; stroke:none;" d="M393 326C394.248 326.685 394.549 326.749 396 327C394.752 326.315 394.452 326.251 393 326z"/>
<path style="fill:#ff7a80; stroke:none;" d="M396.667 326.333C396.222 326.778 397.278 326.722 397.333 326.667C397.778 326.222 396.722 326.278 396.667 326.333z"/>
<path style="fill:#ff868b; stroke:none;" d="M74 327C75.2484 327.685 75.5484 327.749 77 328C75.7517 327.315 75.4515 327.251 74 327z"/>
<path style="fill:#ffb5b8; stroke:none;" d="M77 327C78.2484 327.685 78.5484 327.749 80 328C78.7517 327.315 78.4515 327.251 77 327z"/>
<path style="fill:#ff9ea2; stroke:none;" d="M145 327L146 328L145 327z"/>
<path style="fill:#ffafb3; stroke:none;" d="M309 327L310 328L309 327z"/>
<path style="fill:#ffc0c3; stroke:none;" d="M403 327C404.248 327.685 404.548 327.749 406 328C404.752 327.315 404.452 327.251 403 327z"/>
<path style="fill:#ff9195; stroke:none;" d="M406 327C408.332 327.985 410.457 327.981 413 328C410.668 327.015 408.543 327.019 406 327z"/>
<path style="fill:#ffcbcd; stroke:none;" d="M64.6667 328.333C64.2222 328.778 65.2778 328.722 65.3333 328.667C65.7778 328.222 64.7222 328.278 64.6667 328.333z"/>
<path style="fill:#ff959a; stroke:none;" d="M144 328L145 329L144 328z"/>
<path style="fill:#ffa6aa; stroke:none;" d="M426.667 328.333C426.222 328.778 427.278 328.722 427.333 328.667C427.778 328.222 426.722 328.278 426.667 328.333z"/>
<path style="fill:#ff9195; stroke:none;" d="M61 329L62 330L61 329z"/>
<path style="fill:#ff8e92; stroke:none;" d="M143 329L144 330L143 329M430 329L431 330L430 329z"/>
<path style="fill:#ff9ea2; stroke:none;" d="M313 330L314 331L313 330z"/>
<path style="fill:#ff989d; stroke:none;" d="M58 331L59 332L58 331z"/>
<path style="fill:#ff959a; stroke:none;" d="M433 331L434 332L433 331z"/>
<path style="fill:#ffb2b5; stroke:none;" d="M57 332L58 333L57 332z"/>
<path style="fill:#ffa3a7; stroke:none;" d="M316 332L317 333L316 332z"/>
<path style="fill:#ffacaf; stroke:none;" d="M434 332L435 333L434 332z"/>
<path style="fill:#ff9ea2; stroke:none;" d="M56 333L57 334L56 333z"/>
<path style="fill:#ff9b9f; stroke:none;" d="M435 333L436 334L435 333z"/>
<path style="fill:#ffbabd; stroke:none;" d="M137 334L138 335L137 334z"/>
<path style="fill:#ff959a; stroke:none;" d="M319 334L320 335L319 334z"/>
<path style="fill:#ff989d; stroke:none;" d="M136 335L137 336L136 335z"/>
<path style="fill:#ffb2b5; stroke:none;" d="M321 335L322 336L321 335z"/>
<path style="fill:#ffa1a5; stroke:none;" d="M54 336L55 337L54 336z"/>
<path style="fill:#ffc8ca; stroke:none;" d="M323 336L324 337L323 336z"/>
<path style="fill:#ff9b9f; stroke:none;" d="M437 336L438 337L437 336z"/>
<path style="fill:#ffc0c3; stroke:none;" d="M53.3333 338.667C53.2778 338.722 53.2222 339.778 53.6667 339.333C53.7222 339.278 53.7778 338.222 53.3333 338.667z"/>
<path style="fill:#ffa6aa; stroke:none;" d="M132 338L133 339L132 338z"/>
<path style="fill:#ff989d; stroke:none;" d="M326 338L327 339L326 338z"/>
<path style="fill:#ff959a; stroke:none;" d="M328 339L329 340L328 339z"/>
<path style="fill:#ffc0c3; stroke:none;" d="M129 340L130 341L129 340z"/>
<path style="fill:#ff9ea2; stroke:none;" d="M330 340L331 341L330 340z"/>
<path style="fill:#ff989d; stroke:none;" d="M332 341L333 342L332 341z"/>
<path style="fill:#ffbec0; stroke:none;" d="M126 342L127 343L126 342z"/>
<path style="fill:#ffc0c3; stroke:none;" d="M337 343L338 344L337 343z"/>
<path style="fill:#ffa1a5; stroke:none;" d="M123 344L124 345L123 344z"/>
<path style="fill:#ff9b9f; stroke:none;" d="M339 344L340 345L339 344z"/>
<path style="fill:#ffbec0; stroke:none;" d="M121 345L122 346L121 345z"/>
<path style="fill:#ffc0c3; stroke:none;" d="M342 345L343 346L342 345z"/>
<path style="fill:#ffc9cc; stroke:none;" d="M119 346L120 347L119 346z"/>
<path style="fill:#ff9ea2; stroke:none;" d="M344 346L345 347L344 346z"/>
<path style="fill:#ff8085; stroke:none;" d="M53.3333 347.667C53.2778 347.722 53.2222 348.778 53.6667 348.333C53.7222 348.278 53.7778 347.222 53.3333 347.667z"/>
<path style="fill:#ffa6aa; stroke:none;" d="M347 347L348 348L347 347z"/>
<path style="fill:#ffafb3; stroke:none;" d="M438 347L439 348L438 347z"/>
<path style="fill:#ffa1a5; stroke:none;" d="M350 348L351 349L350 348z"/>
<path style="fill:#ffc3c5; stroke:none;" d="M113 349L114 350L113 349z"/>
<path style="fill:#ffd2d4; stroke:none;" d="M353.667 349.333C353.222 349.778 354.278 349.722 354.333 349.667C354.778 349.222 353.722 349.278 353.667 349.333z"/>
<path style="fill:#ff959a; stroke:none;" d="M54 350L55 351L54 350z"/>
<path style="fill:#ffafb3; stroke:none;" d="M111 350L112 351L111 350z"/>
<path style="fill:#ffbcbf; stroke:none;" d="M356.667 350.333C356.222 350.778 357.278 350.722 357.333 350.667C357.778 350.222 356.722 350.278 356.667 350.333z"/>
<path style="fill:#ff9195; stroke:none;" d="M437 350L438 351L437 350z"/>
<path style="fill:#ffcbcd; stroke:none;" d="M360.667 351.333C360.222 351.778 361.278 351.722 361.333 351.667C361.778 351.222 360.722 351.278 360.667 351.333z"/>
<path style="fill:#ffa6aa; stroke:none;" d="M106 352L107 353L106 352z"/>
<path style="fill:#ffc5c8; stroke:none;" d="M364.667 352.333C364.222 352.778 365.278 352.722 365.333 352.667C365.778 352.222 364.722 352.278 364.667 352.333z"/>
<path style="fill:#ff9195; stroke:none;" d="M56 353L57 354L56 353z"/>
<path style="fill:#ffacaf; stroke:none;" d="M103 353L104 354L103 353z"/>
<path style="fill:#ffb5b8; stroke:none;" d="M368.667 353.333C368.222 353.778 369.278 353.722 369.333 353.667C369.778 353.222 368.722 353.278 368.667 353.333z"/>
<path style="fill:#ffa1a5; stroke:none;" d="M57 354L58 355L57 354z"/>
<path style="fill:#ff9ea2; stroke:none;" d="M99.6667 354.333C99.2222 354.778 100.278 354.722 100.333 354.667C100.778 354.222 99.7222 354.278 99.6667 354.333z"/>
<path style="fill:#ffb8bb; stroke:none;" d="M373.667 354.333C373.222 354.778 374.278 354.722 374.333 354.667C374.778 354.222 373.722 354.278 373.667 354.333z"/>
<path style="fill:#ff9b9f; stroke:none;" d="M434 354L435 355L434 354z"/>
<path style="fill:#ffafb3; stroke:none;" d="M95 355C96.2484 355.685 96.5484 355.749 98 356C96.7517 355.315 96.4515 355.251 95 355z"/>
<path style="fill:#ffa1a5; stroke:none;" d="M378.667 355.333C378.222 355.778 379.278 355.722 379.333 355.667C379.778 355.222 378.722 355.278 378.667 355.333z"/>
<path style="fill:#ffd5d7; stroke:none;" d="M380.667 355.333C380.222 355.778 381.278 355.722 381.333 355.667C381.778 355.222 380.722 355.278 380.667 355.333z"/>
<path style="fill:#ffc5c8; stroke:none;" d="M90 356C91.2484 356.685 91.5484 356.749 93 357C91.7517 356.315 91.4515 356.251 90 356z"/>
<path style="fill:#ff959a; stroke:none;" d="M384.667 356.333C384.222 356.778 385.278 356.722 385.333 356.667C385.778 356.222 384.722 356.278 384.667 356.333z"/>
<path style="fill:#ffbec0; stroke:none;" d="M386.667 356.333C386.222 356.778 387.278 356.722 387.333 356.667C387.778 356.222 386.722 356.278 386.667 356.333z"/>
<path style="fill:#ffc8ca; stroke:none;" d="M431 356L432 357L431 356z"/>
<path style="fill:#ffc5c8; stroke:none;" d="M84 357C85.2484 357.685 85.5484 357.749 87 358C85.7517 357.315 85.4515 357.251 84 357z"/>
<path style="fill:#ff9195; stroke:none;" d="M392.667 357.333C392.222 357.778 393.278 357.722 393.333 357.667C393.778 357.222 392.722 357.278 392.667 357.333z"/>
<path style="fill:#ffcbcd; stroke:none;" d="M394 357C395.769 357.779 397.036 357.912 399 358C397.231 357.221 395.964 357.088 394 357z"/>
<path style="fill:#ffbabd; stroke:none;" d="M64.6667 358.333C64.2222 358.778 65.2778 358.722 65.3333 358.667C65.7778 358.222 64.7222 358.278 64.6667 358.333z"/>
<path style="fill:#ffe0e2; stroke:none;" d="M66 358C68.8897 359.213 71.8741 358.998 75 359C72.1103 357.787 69.1259 358.002 66 358z"/>
<path style="fill:#ff9ea2; stroke:none;" d="M75 358C76.769 358.779 78.0359 358.912 80 359C78.231 358.221 76.9641 358.088 75 358z"/>
<path style="fill:#ff888d; stroke:none;" d="M402 358C403.769 358.779 405.036 358.912 407 359C405.231 358.221 403.964 358.088 402 358z"/>
<path style="fill:#ffbcbf; stroke:none;" d="M407 358C408.769 358.779 410.036 358.912 412 359C410.231 358.221 408.964 358.088 407 358z"/>
<path style="fill:#ffdedf; stroke:none;" d="M412 358C416.471 359.876 422.183 359 427 359C422.529 357.124 416.817 358 412 358z"/>
<path style="fill:#b73f44; stroke:none;" d="M248 401L249 402L248 401z"/>
<path style="fill:#000000; stroke:none;" d="M248 403L251 403L250 401C248.365 401.545 248.545 401.365 248 403z"/>
<path style="fill:#9f373b; stroke:none;" d="M250 401L251 402L250 401z"/>
</svg>
